<svg width="200" height="200" viewBox="0 0 200 200" xmlns="http://www.w3.org/2000/svg" role="img">
<title>Animated network traffic simulation on screen</title>
<rect x="22" y="36" width="156" height="106" rx="10" fill="none" stroke="#1a1a1a" stroke-width="5"/>
<rect x="83" y="150" width="34" height="15" fill="#1a1a1a"/>
<rect x="55" y="165" width="90" height="9" rx="4" fill="#1a1a1a"/>
<g stroke="#1a1a1a" stroke-width="1" opacity="0.15">
<line x1="22" y1="60" x2="178" y2="60"/>
<line x1="22" y1="84" x2="178" y2="84"/>
<line x1="22" y1="108" x2="178" y2="108"/>
<line x1="22" y1="132" x2="178" y2="132"/>
</g>
<g stroke="#1a1a1a" stroke-width="2.5" fill="none" opacity="0.9">
<path id="e1" d="M38 128 L68 100"/>
<path id="e2" d="M68 100 L98 116"/>
<path id="e3" d="M98 116 L132 92"/>
<path id="e4" d="M68 100 L78 66"/>
<path id="e5" d="M132 92 L162 68"/>
<path id="e6" d="M98 116 L110 142"/>
<path id="e7" d="M78 66 L120 54"/>
</g>
<circle cx="38" cy="128" r="5" fill="#1a1a1a"/>
<circle cx="68" cy="100" r="6.5" fill="#1a1a1a"/>
<circle cx="98" cy="116" r="5" fill="#1a1a1a"/>
<circle cx="132" cy="92" r="6.5" fill="#1a1a1a"/>
<circle cx="162" cy="68" r="5" fill="#1a1a1a"/>
<circle cx="78" cy="66" r="5" fill="#1a1a1a"/>
<circle cx="110" cy="142" r="5" fill="#1a1a1a"/>
<circle cx="120" cy="54" r="5" fill="#1a1a1a"/>
<g fill="#1a1a1a">
<rect x="-4" y="-2.5" width="8" height="5" rx="1.5">
<animateMotion dur="2.2s" repeatCount="indefinite" rotate="auto" keyPoints="0;1" keyTimes="0;1" calcMode="linear"><mpath href="#e1"/></animateMotion>
</rect>
<rect x="-4" y="-2.5" width="8" height="5" rx="1.5">
<animateMotion dur="1.9s" begin="0.4s" repeatCount="indefinite" rotate="auto" keyPoints="0;1" keyTimes="0;1" calcMode="linear"><mpath href="#e2"/></animateMotion>
</rect>
<rect x="-4" y="-2.5" width="8" height="5" rx="1.5">
<animateMotion dur="2.1s" begin="0.9s" repeatCount="indefinite" rotate="auto" keyPoints="0;1" keyTimes="0;1" calcMode="linear"><mpath href="#e3"/></animateMotion>
</rect>
<rect x="-4" y="-2.5" width="8" height="5" rx="1.5">
<animateMotion dur="1.7s" begin="0.2s" repeatCount="indefinite" rotate="auto" keyPoints="0;1" keyTimes="0;1" calcMode="linear"><mpath href="#e4"/></animateMotion>
</rect>
<rect x="-4" y="-2.5" width="8" height="5" rx="1.5">
<animateMotion dur="2.3s" begin="0.6s" repeatCount="indefinite" rotate="auto" keyPoints="0;1" keyTimes="0;1" calcMode="linear"><mpath href="#e5"/></animateMotion>
</rect>
<rect x="-4" y="-2.5" width="8" height="5" rx="1.5">
<animateMotion dur="1.8s" begin="1.1s" repeatCount="indefinite" rotate="auto" keyPoints="0;1" keyTimes="0;1" calcMode="linear"><mpath href="#e6"/></animateMotion>
</rect>
<rect x="-4" y="-2.5" width="8" height="5" rx="1.5">
<animateMotion dur="2s" begin="0.5s" repeatCount="indefinite" rotate="auto" keyPoints="0;1" keyTimes="0;1" calcMode="linear"><mpath href="#e7"/></animateMotion>
</rect>
</g>
<circle cx="68" cy="100" r="6.5" fill="none" stroke="#1a1a1a" stroke-width="1.5">
<animate attributeName="r" values="6.5;12;6.5" dur="2s" repeatCount="indefinite"/>
<animate attributeName="opacity" values="0.7;0;0.7" dur="2s" repeatCount="indefinite"/>
</circle>
</svg>
